<svg width="85" height="82" viewBox="0 0 85 82" fill="none" xmlns="http://www.w3.org/2000/svg">
<path d="M65.3925 3.12301L45.5806 19.9512C44.8346 20.5842 43.7162 20.4935 43.0823 19.7476C42.4493 19.0016 42.54 17.8832 43.2859 17.2493L63.0993 0.42118C63.8452 -0.211822 64.9637 -0.121156 65.5975 0.624761C66.2297 1.37069 66.139 2.48997 65.3923 3.12301H65.3925Z" fill="black"/>
<path d="M80.3502 81.0541H69.5858C68.4294 81.0541 67.3101 80.7153 66.3482 80.0732L61.8108 77.0483C61.4811 76.8274 61.0534 76.8002 60.6998 76.9783L55.1346 79.761C53.0065 80.8242 50.4728 80.4995 48.6818 78.9326L43.2701 74.1967C42.853 73.8324 42.2241 73.8324 41.8087 74.1967L35.6253 79.607C34.5621 80.5383 33.1972 81.051 31.7828 81.051L2.363 81.0518C1.05825 81.0518 0 79.9927 0 78.6888C0 77.3841 1.05912 76.3258 2.363 76.3258H31.7807C32.0502 76.3258 32.309 76.2278 32.5118 76.0514L38.6951 70.6396C40.886 68.7217 44.1894 68.7217 46.3819 70.6396L51.7936 75.3755C52.1349 75.6731 52.6162 75.7374 53.0201 75.533L58.5852 72.7503C60.4537 71.8148 62.694 71.9549 64.4331 73.1154L68.9705 76.1403C69.1534 76.2623 69.3661 76.3274 69.5862 76.3274H80.3506C81.6553 76.3274 82.7136 77.3866 82.7136 78.6904C82.7144 79.9944 81.6553 81.0543 80.3497 81.0543L80.3502 81.0541Z" fill="black"/>
<path d="M17.1762 49.4819L27.1303 61.2007C27.3421 61.4488 27.3108 61.8221 27.0627 62.0339L23.01 65.4758L3.55347 72.6028C2.52155 72.9811 1.57863 71.87 2.11767 70.9131L12.2911 52.8561L16.3438 49.4143C16.5919 49.2033 16.9652 49.2337 17.1762 49.4818L17.1762 49.4819Z" fill="black"/>
<path d="M29.8321 58.9052L19.878 47.1865C19.6661 46.9384 19.6975 46.565 19.9456 46.3532L60.4724 11.9327C60.7205 11.7208 61.0939 11.7522 61.3057 12.0002L71.2599 23.719C71.4717 23.9671 71.4404 24.3405 71.1923 24.5523L30.6654 58.9749C30.4157 59.1868 30.044 59.1563 29.8321 58.9065V58.9052Z" fill="black"/>
<path d="M82.4489 14.9896L74.7945 21.4917C74.5464 21.7036 74.173 21.6723 73.9612 21.4242L64.0079 9.70455C63.796 9.45646 63.8273 9.0831 64.0754 8.87127L71.7299 2.36908C74.2174 0.256538 77.9453 0.559914 80.0579 3.0474L83.1265 6.66079C85.239 9.14912 84.9356 12.8771 82.449 14.9896L82.4489 14.9896Z" fill="black"/>
</svg>
