<?xml version="1.0" standalone="no"?>
<!DOCTYPE svg PUBLIC "-//W3C//DTD SVG 20010904//EN"
 "http://www.w3.org/TR/2001/REC-SVG-20010904/DTD/svg10.dtd">
        <svg xmlns="http://www.w3.org/2000/svg" width="109" height="20" fill="none" viewBox="0 0 109 20">
            <path
                fill="#fff"
                d="M27 17.22c.43-1.62 1.43-2.97 2.98-4.05 1.56-1.08 3.83-2.05 6.81-2.9 2.75-.79 4.64-1.49 5.67-2.1 1.03-.61 1.69-1.47 1.98-2.56.27-1.02.04-1.77-.69-2.26-.73-.49-1.9-.73-3.5-.73-1.71 0-3.15.34-4.32 1.01-1.16.67-1.93 1.72-2.31 3.14h-3.9c.58-2.18 1.85-3.85 3.8-5.01C35.47.59 37.96.01 41 .01s5.11.51 6.28 1.52c1.17 1.02 1.54 2.34 1.1 3.97-.49 1.83-1.56 3.25-3.22 4.27-1.65 1.02-3.69 1.9-6.1 2.64-2.55.8-4.45 1.54-5.69 2.22-1.24.68-1.98 1.48-2.23 2.39h14.13l-.71 2.66H26.34l.65-2.44.01-.02zM51.09 2.89l.73-2.73h18.31l-.72 2.7c-3.45 2.11-6.29 4.5-8.53 7.17-2.24 2.67-3.86 5.88-4.86 9.63h-4.2c1.03-3.84 2.71-7.16 5.03-9.96 2.32-2.79 5.33-5.22 9.02-7.27v-.19l-1.8.61c-.08.02-.16.03-.22.03H51.11l-.02.01zM67.54 17h6.62l3.45-12.89 1.21-.58.06-.43-8.05 1.5.78-2.9L79.44.13h3.12l-4.52 16.88h6.5l-.71 2.66H66.82l.71-2.66.01-.01zM95.12 19.88c-2.97 0-5.11-.52-6.42-1.57-1.31-1.05-1.72-2.51-1.21-4.4.51-1.89 1.64-3.14 3.48-4.05.46-.23.95-.43 1.47-.59-.36-.13-.67-.29-.94-.48-1.24-.8-1.63-2.05-1.18-3.74.45-1.69 1.57-2.99 3.32-3.81C95.39.41 97.67 0 100.46 0c2.63 0 4.63.41 6 1.24 1.37.83 1.83 2.1 1.37 3.81-.46 1.71-1.51 2.93-3.17 3.74-.36.17-.76.33-1.18.48.44.16.82.36 1.16.59 1.34.91 1.77 2.25 1.29 4.05-.51 1.89-1.73 3.35-3.67 4.4-1.94 1.05-4.32 1.57-7.13 1.57h-.01zm.68-2.54c1.7 0 3.1-.3 4.18-.9 1.08-.6 1.79-1.5 2.11-2.72.32-1.22.1-2.04-.65-2.57-.75-.53-2.01-.79-3.77-.79-1.76 0-3.18.26-4.22.79-1.04.53-1.72 1.39-2.03 2.57-.31 1.18-.1 2.12.67 2.72.77.6 2.01.9 3.71.9zm2.43-9.07c1.71 0 3.05-.24 4-.71.95-.47 1.57-1.23 1.85-2.28.25-.94 0-1.65-.74-2.12-.75-.47-1.93-.7-3.55-.7-1.62 0-2.94.23-3.94.7s-1.62 1.17-1.87 2.12c-.28 1.05-.07 1.81.63 2.28.7.47 1.91.71 3.62.71zM24.24 19.69l-8.69-.03L20.77.19h8.7l-5.23 19.5zM14.46 19.69l-5.12-.03L14.56.19h5.13l-5.23 19.5zM8.262 19.69l-3.34-.03L10.142.19h3.34l-5.22 19.5zM3.83 19.69l-1.9-.03L7.14.19h1.92l-5.23 19.5zM.84 19.69L0 19.66 5.22.19h.85L.84 19.69z"
            ></path>
        </svg>