<?xml version="1.0" standalone="no"?>
<!DOCTYPE svg PUBLIC "-//W3C//DTD SVG 20010904//EN"
 "http://www.w3.org/TR/2001/REC-SVG-20010904/DTD/svg10.dtd">
<svg version="1.0" xmlns="http://www.w3.org/2000/svg"
 width="700.000000pt" height="700.000000pt" viewBox="0 0 700.000000 700.000000"
 preserveAspectRatio="xMidYMid meet">
<g transform="translate(0.000000,700.000000) scale(0.100000,-0.100000)"
fill="#000000" stroke="none">
<path d="M3249 6996 c-2 -2 -43 -6 -91 -10 -73 -6 -326 -42 -419 -61 -336 -66
-816 -260 -1099 -442 -139 -90 -330 -228 -404 -293 -287 -251 -470 -457 -660
-743 -258 -389 -417 -775 -512 -1247 -8 -41 -17 -84 -18 -95 -9 -63 -18 -123
-22 -145 -19 -125 -26 -589 -11 -735 13 -118 17 -149 22 -175 2 -14 7 -45 10
-70 5 -37 54 -270 70 -330 81 -312 230 -655 408 -940 212 -341 492 -649 833
-919 38 -30 253 -181 258 -181 1 0 41 -23 87 -51 182 -110 426 -222 658 -301
176 -60 465 -129 601 -143 19 -2 49 -6 65 -9 17 -3 62 -8 100 -11 39 -3 90 -8
115 -11 54 -6 363 -5 440 1 157 13 200 17 260 26 315 46 569 115 859 236 774
321 1417 932 1784 1693 30 63 68 149 85 190 16 41 33 84 37 95 4 11 9 25 10
30 2 6 12 35 23 65 68 181 127 444 167 745 22 167 23 606 1 745 -5 28 -16 109
-22 155 -3 28 -37 209 -50 265 -25 117 -125 428 -167 521 -8 19 -32 72 -53
119 -20 47 -45 99 -54 115 -9 17 -34 64 -56 105 -43 83 -138 238 -192 315 -54
76 -145 199 -157 211 -5 6 -35 40 -65 75 -394 461 -924 822 -1498 1020 -102
35 -302 92 -363 104 -11 2 -28 6 -37 9 -9 3 -34 7 -56 11 -21 3 -41 7 -45 9
-4 3 -34 8 -66 11 -33 4 -62 9 -65 10 -3 2 -37 6 -77 10 -40 4 -85 9 -100 11
-34 6 -529 15 -534 10z m511 -340 c130 -5 288 -23 415 -46 213 -40 521 -135
585 -181 131 -95 90 -313 -66 -358 -16 -5 -92 -8 -169 -9 -140 0 -200 -4 -350
-23 -87 -11 -252 -44 -300 -59 -16 -5 -68 -21 -113 -35 -376 -116 -731 -333
-1022 -625 -349 -349 -577 -768 -683 -1255 -9 -38 -18 -88 -22 -110 -3 -23 -7
-50 -9 -61 -32 -165 -27 -563 9 -768 23 -127 25 -136 46 -216 134 -518 436
-988 854 -1330 176 -144 459 -309 675 -393 70 -28 316 -103 365 -112 35 -6
198 -34 237 -41 48 -8 182 -15 318 -18 149 -4 185 -13 237 -65 54 -54 73 -148
44 -223 -13 -34 -59 -86 -90 -102 -31 -16 -192 -74 -224 -80 -12 -3 -54 -14
-94 -25 -88 -25 -297 -67 -378 -76 -33 -4 -70 -8 -82 -10 -140 -22 -498 -22
-683 0 -107 13 -147 19 -235 37 -55 11 -111 22 -125 24 -71 13 -333 93 -405
124 -11 4 -60 25 -110 45 -484 201 -930 545 -1261 975 -170 220 -353 547 -435
778 -11 32 -24 66 -29 77 -34 76 -118 401 -135 515 -3 25 -8 52 -10 60 -2 8
-7 42 -10 75 -3 33 -10 87 -14 120 -9 63 -7 532 2 575 3 14 8 52 11 85 9 92
33 221 67 365 28 117 108 354 159 475 51 117 150 312 191 373 16 24 29 45 29
48 0 3 31 51 70 107 248 363 571 672 944 904 90 56 353 194 391 205 11 4 52
20 90 36 183 76 436 147 650 181 193 30 188 30 350 37 83 4 152 8 153 10 2 1
9 1 15 -1 7 -2 73 -6 147 -9z m970 -997 c36 -5 92 -14 125 -20 33 -6 71 -13
85 -15 14 -3 67 -16 117 -30 710 -191 1289 -768 1487 -1482 22 -80 46 -186 50
-222 1 -8 5 -40 9 -70 4 -30 10 -71 12 -90 5 -45 6 -339 1 -365 -2 -11 -7 -51
-10 -90 -4 -38 -9 -77 -11 -85 -2 -8 -7 -31 -10 -50 -40 -240 -171 -560 -320
-781 -345 -512 -868 -842 -1475 -933 -158 -23 -477 -24 -584 -1 -12 2 -37 7
-56 9 -198 28 -416 99 -620 202 -384 194 -707 505 -912 879 -103 188 -189 426
-223 615 -37 208 -47 388 -32 585 7 87 42 301 57 350 5 17 23 73 39 125 29 93
43 131 82 217 10 23 19 44 19 46 0 3 23 47 52 98 267 487 693 842 1215 1015
120 39 298 79 401 90 37 3 69 8 70 9 8 8 373 2 432 -6z"/>
</g>
</svg>
