<svg width="233" height="43" viewBox="0 0 233 43" fill="none" xmlns="http://www.w3.org/2000/svg">
<path d="M230.648 2.1629C228.858 0.857613 225.578 0.204966 220.826 0.204966H192.541C192.25 0.204966 191.991 0.388346 191.894 0.668821L189.721 6.99573C189.623 7.27081 189.24 7.26001 189.149 6.98493C188.545 5.18881 187.045 3.72171 184.645 2.57823C181.026 0.857624 175.546 0 168.199 0C160.853 0 154.591 0.943903 149.354 2.82633C148.41 3.16613 147.531 3.54372 146.711 3.96443C146.446 4.09928 146.155 3.85114 146.252 3.57067L147.228 0.71738C147.315 0.469266 147.131 0.210365 146.867 0.210365L87.9726 0.194168C87.7245 0.194168 87.4818 0.285884 87.293 0.45309L62.9617 22.2547C62.8269 22.3733 62.6165 22.2385 62.6758 22.0659L70.0653 0.544775C70.1192 0.377569 70.0006 0.210365 69.8226 0.210365H48.6467C48.4741 0.210365 48.3069 0.280476 48.1828 0.404532L30.734 18.0206C30.4211 18.3226 30.1353 18.6732 29.871 19.0616C29.6067 19.4499 29.4125 19.8113 29.2885 20.1349L28.9702 20.9763H28.3445L28.5765 20.1349C28.679 19.8113 28.7329 19.4499 28.7275 19.0616C28.7275 18.6732 28.6736 18.3226 28.5603 18.0206L23.2205 0.480053C23.1719 0.31824 23.0263 0.210365 22.8591 0.210365H12.0014C11.8396 0.210365 11.721 0.372192 11.7749 0.528611L14.3801 8.15536C14.4017 8.22009 14.4448 8.27942 14.4988 8.32257L18.7814 11.8771C18.8515 11.931 18.8515 12.0389 18.7814 12.0928L16.6023 13.8997C16.4837 14.0022 16.4351 14.164 16.4837 14.3151L19.6228 23.4898C19.6929 23.6948 19.8871 23.835 20.1083 23.835H35.2647C35.4481 23.835 35.6315 23.7649 35.761 23.6355L57.9509 2.03886C58.0858 1.90941 58.3015 2.04963 58.2422 2.22223L50.939 23.5006C50.8851 23.6678 51.0037 23.835 51.1817 23.835H72.7028C72.9078 23.835 73.1074 23.7595 73.253 23.6139L78.6468 18.5492C78.8032 18.4035 79.0082 18.3226 79.2239 18.3226H98.7709C98.9489 18.3226 99.1107 18.4359 99.1754 18.6031L101.025 23.533C101.096 23.7164 101.268 23.835 101.462 23.835H122.396C122.649 23.835 122.881 23.6732 122.962 23.4305L128.453 7.40566C128.62 6.91482 128.512 6.52107 128.135 6.21362C127.757 5.90618 127.169 5.76053 126.371 5.76053H125.945L126.09 5.33984H143.453C143.755 5.33984 143.9 5.72279 143.663 5.91157C141.603 7.56207 140.163 9.60092 139.337 12.0227C139.084 12.7455 138.906 13.4305 138.814 14.0669C138.356 17.2762 139.936 19.7412 143.55 21.4672C147.169 23.1932 152.638 24.0562 159.969 24.0562C167.299 24.0562 173.577 23.1123 178.814 21.2298C181.635 20.2158 183.906 18.8512 185.632 17.1468C185.859 16.9202 186.231 17.1468 186.128 17.4542L184.111 23.328C184.025 23.5707 184.208 23.8296 184.467 23.8296H194.791C195.098 23.8296 195.368 23.6355 195.47 23.3442L197.93 16.1867C198.027 15.9116 198.286 15.7282 198.577 15.7282H208.442C208.75 15.7282 209.041 15.8792 209.214 16.1381L214.241 23.5114C214.375 23.711 214.602 23.8296 214.845 23.8296H226.398C226.679 23.8296 226.846 23.5222 226.695 23.2849L221.813 15.6581L217.536 16.0087L217.272 15.6581C221.145 15.4585 224.343 14.7897 226.867 13.6462C229.92 12.2438 231.851 10.383 232.66 8.04748C232.795 7.62677 232.892 7.21687 232.952 6.82312C233.21 5.027 232.439 3.47359 230.648 2.1683V2.1629ZM84.294 13.2363L92.0934 5.9763C92.4926 5.59334 92.8647 5.15645 93.2099 4.66562C93.5551 4.17478 93.8086 3.71632 93.965 3.28482L94.0352 3.00433H94.6932L94.5961 3.28482C94.4559 3.71632 94.3858 4.17478 94.3858 4.66562C94.3858 5.15645 94.4559 5.59334 94.6123 5.9763L97.4009 13.2363H84.2994H84.294ZM111.84 21.2137L105.233 5.74437C105.146 5.5448 105.292 5.32364 105.508 5.32364H117.412C117.606 5.32364 117.741 5.51243 117.681 5.70121L112.385 21.1921C112.298 21.4456 111.942 21.4564 111.84 21.2137ZM177.935 10.3506C177.86 10.863 177.725 11.4186 177.525 12.0119C176.538 14.9138 174.618 16.8879 171.759 17.9235C168.901 18.9645 165.492 19.4823 161.533 19.4823C157.574 19.4823 154.629 19.013 152.698 18.0799C150.767 17.1468 149.947 15.6635 150.238 13.6354C150.308 13.1338 150.443 12.589 150.643 12.0065C151.646 9.10467 153.577 7.13594 156.436 6.10034C159.294 5.07013 162.692 4.55234 166.635 4.55234C170.578 4.55234 173.539 5.01621 175.47 5.94394C177.401 6.87166 178.226 8.33875 177.941 10.3452L177.935 10.3506ZM221.409 7.69151C221.387 7.83175 221.35 7.97738 221.29 8.1284C220.961 9.11007 220.141 9.8598 218.825 10.383C217.515 10.9062 215.772 11.1705 213.604 11.1705H199.618L201.722 5.02699H215.708C217.876 5.02699 219.397 5.28589 220.265 5.79829C221.134 6.3107 221.517 6.94177 221.409 7.68611V7.69151Z" fill="white"/>
<path d="M0.215755 5.53402C0.113274 5.49626 0 5.57179 0 5.68506V11.6829L0.528595 11.8825H0.895366V12.1036H0.501624L0 12.2924V18.301C0 18.4143 0.113274 18.4898 0.215755 18.4521L17.163 12.0875C17.26 12.0497 17.26 11.9094 17.163 11.8717L0.215755 5.53402Z" fill="white"/>
<path d="M21.2653 38V30.3H23.8613C24.3527 30.3 24.7927 30.3697 25.1813 30.509C25.5773 30.641 25.8963 30.872 26.1383 31.202C26.3803 31.5247 26.5013 31.9537 26.5013 32.489C26.5013 33.0243 26.384 33.4533 26.1493 33.776C25.9147 34.0987 25.5993 34.3297 25.2033 34.469C24.8147 34.601 24.3673 34.667 23.8613 34.667H22.2663V38H21.2653ZM23.8503 33.831C24.415 33.831 24.8257 33.7137 25.0823 33.479C25.3463 33.2443 25.4783 32.9143 25.4783 32.489C25.4783 32.0563 25.3463 31.7227 25.0823 31.488C24.8257 31.2533 24.415 31.136 23.8503 31.136H22.2663V33.831H23.8503ZM43.624 38L46.077 30.3H47.342L49.806 38H48.761L46.968 32.137C46.946 32.071 46.924 32.005 46.902 31.939C46.8874 31.873 46.869 31.807 46.847 31.741C46.8177 31.653 46.792 31.565 46.77 31.477C46.748 31.389 46.7224 31.301 46.693 31.213C46.671 31.2937 46.649 31.3743 46.627 31.455C46.605 31.5283 46.583 31.6017 46.561 31.675C46.539 31.7483 46.517 31.8253 46.495 31.906C46.473 31.9793 46.4474 32.0563 46.418 32.137L44.625 38H43.624ZM44.999 35.712V34.876H48.464V35.712H44.999ZM69.8327 38.165C69.2534 38.165 68.7401 38.0587 68.2927 37.846C67.8454 37.6333 67.4971 37.329 67.2477 36.933C66.9984 36.5297 66.8701 36.0603 66.8627 35.525H67.8857C67.9004 35.8917 67.9921 36.2107 68.1607 36.482C68.3367 36.7533 68.5677 36.9623 68.8537 37.109C69.1471 37.2557 69.4771 37.329 69.8437 37.329C70.2251 37.329 70.5551 37.2703 70.8337 37.153C71.1124 37.0357 71.3251 36.8743 71.4717 36.669C71.6257 36.4563 71.7027 36.2143 71.7027 35.943C71.7027 35.591 71.5707 35.3197 71.3067 35.129C71.0427 34.931 70.6467 34.766 70.1187 34.634L69.3157 34.425C68.6484 34.2417 68.1167 33.974 67.7207 33.622C67.3247 33.27 67.1267 32.8153 67.1267 32.258C67.1267 31.8547 67.2404 31.4917 67.4677 31.169C67.7024 30.8463 68.0214 30.5933 68.4247 30.41C68.8354 30.2193 69.2937 30.124 69.7997 30.124C70.3204 30.124 70.7824 30.2193 71.1857 30.41C71.5891 30.6007 71.9117 30.872 72.1537 31.224C72.3957 31.576 72.5314 31.9867 72.5607 32.456H71.5377C71.5157 32.1553 71.4241 31.895 71.2627 31.675C71.1087 31.4477 70.9034 31.2753 70.6467 31.158C70.3901 31.0333 70.1004 30.971 69.7777 30.971C69.4771 30.971 69.2057 31.0223 68.9637 31.125C68.7217 31.2277 68.5274 31.3707 68.3807 31.554C68.2414 31.7373 68.1717 31.939 68.1717 32.159C68.1717 32.4963 68.2817 32.7677 68.5017 32.973C68.7291 33.171 69.0847 33.336 69.5687 33.468L70.5917 33.743C71.0391 33.8603 71.4204 34.0143 71.7357 34.205C72.0584 34.3883 72.3077 34.6193 72.4837 34.898C72.6671 35.1693 72.7587 35.4957 72.7587 35.877C72.7587 36.295 72.6377 36.68 72.3957 37.032C72.1537 37.3767 71.8091 37.6517 71.3617 37.857C70.9217 38.0623 70.4121 38.165 69.8327 38.165ZM92.9284 38.165C92.3491 38.165 91.8358 38.0587 91.3884 37.846C90.9411 37.6333 90.5928 37.329 90.3434 36.933C90.0941 36.5297 89.9658 36.0603 89.9584 35.525H90.9814C90.9961 35.8917 91.0878 36.2107 91.2564 36.482C91.4324 36.7533 91.6634 36.9623 91.9494 37.109C92.2428 37.2557 92.5728 37.329 92.9394 37.329C93.3208 37.329 93.6508 37.2703 93.9294 37.153C94.2081 37.0357 94.4208 36.8743 94.5674 36.669C94.7214 36.4563 94.7984 36.2143 94.7984 35.943C94.7984 35.591 94.6664 35.3197 94.4024 35.129C94.1384 34.931 93.7424 34.766 93.2144 34.634L92.4114 34.425C91.7441 34.2417 91.2124 33.974 90.8164 33.622C90.4204 33.27 90.2224 32.8153 90.2224 32.258C90.2224 31.8547 90.3361 31.4917 90.5634 31.169C90.7981 30.8463 91.1171 30.5933 91.5204 30.41C91.9311 30.2193 92.3894 30.124 92.8954 30.124C93.4161 30.124 93.8781 30.2193 94.2814 30.41C94.6848 30.6007 95.0074 30.872 95.2494 31.224C95.4914 31.576 95.6271 31.9867 95.6564 32.456H94.6334C94.6114 32.1553 94.5198 31.895 94.3584 31.675C94.2044 31.4477 93.9991 31.2753 93.7424 31.158C93.4858 31.0333 93.1961 30.971 92.8734 30.971C92.5728 30.971 92.3014 31.0223 92.0594 31.125C91.8174 31.2277 91.6231 31.3707 91.4764 31.554C91.3371 31.7373 91.2674 31.939 91.2674 32.159C91.2674 32.4963 91.3774 32.7677 91.5974 32.973C91.8248 33.171 92.1804 33.336 92.6644 33.468L93.6874 33.743C94.1348 33.8603 94.5161 34.0143 94.8314 34.205C95.1541 34.3883 95.4034 34.6193 95.5794 34.898C95.7628 35.1693 95.8544 35.4957 95.8544 35.877C95.8544 36.295 95.7334 36.68 95.4914 37.032C95.2494 37.3767 94.9048 37.6517 94.4574 37.857C94.0174 38.0623 93.5078 38.165 92.9284 38.165ZM113.67 38V30.3H118.62V31.136H114.671V33.655H118.433V34.502H114.671V37.153H118.752V38H113.67ZM136.579 38V30.3H138.13L140.627 36.867V36.383C140.627 36.3023 140.627 36.2217 140.627 36.141C140.627 36.0603 140.627 35.9797 140.627 35.899V30.3H141.617V38H140.132L137.558 31.268C137.558 31.3633 137.558 31.455 137.558 31.543C137.558 31.631 137.558 31.719 137.558 31.807C137.558 31.873 137.558 31.939 137.558 32.005C137.558 32.071 137.558 32.137 137.558 32.203V38H136.579ZM162.183 38.165C161.589 38.165 161.079 37.9927 160.654 37.648C160.236 37.3033 159.917 36.834 159.697 36.24C159.477 35.6387 159.367 34.9567 159.367 34.194C159.367 33.3507 159.488 32.6247 159.73 32.016C159.979 31.4 160.331 30.9307 160.786 30.608C161.24 30.2853 161.779 30.124 162.403 30.124C162.879 30.124 163.297 30.2267 163.657 30.432C164.023 30.63 164.313 30.9123 164.526 31.279C164.746 31.6383 164.885 32.0563 164.944 32.533H163.866C163.814 32.225 163.719 31.9537 163.58 31.719C163.448 31.4843 163.275 31.301 163.063 31.169C162.857 31.037 162.626 30.971 162.37 30.971C161.93 30.971 161.563 31.103 161.27 31.367C160.984 31.631 160.771 32.005 160.632 32.489C160.492 32.9657 160.423 33.534 160.423 34.194C160.423 34.766 160.485 35.2903 160.61 35.767C160.742 36.2363 160.951 36.614 161.237 36.9C161.523 37.186 161.893 37.329 162.348 37.329C162.67 37.329 162.956 37.241 163.206 37.065C163.462 36.8817 163.664 36.614 163.811 36.262C163.957 35.9027 164.031 35.47 164.031 34.964V34.821H162.249V33.974H164.955V38H164.119V37.659C164.119 37.6003 164.119 37.538 164.119 37.472C164.119 37.406 164.119 37.34 164.119 37.274C164.119 37.2153 164.119 37.1603 164.119 37.109C164.119 37.0503 164.119 36.9917 164.119 36.933C163.957 37.3217 163.712 37.626 163.382 37.846C163.052 38.0587 162.652 38.165 162.183 38.165ZM182.957 38V30.3H187.907V31.136H183.958V33.655H187.72V34.502H183.958V37.153H188.039V38H182.957ZM205.822 38V30.3H208.748C209.489 30.3 210.075 30.4797 210.508 30.839C210.941 31.191 211.157 31.686 211.157 32.324C211.157 32.7787 211.014 33.1747 210.728 33.512C210.442 33.8493 210.108 34.0767 209.727 34.194C210.108 34.2527 210.413 34.4397 210.64 34.755C210.867 35.063 210.981 35.4627 210.981 35.954V38H209.98V36.229C209.98 35.6277 209.855 35.2133 209.606 34.986C209.364 34.7513 208.95 34.634 208.363 34.634H206.823V38H205.822ZM208.495 33.787C208.84 33.787 209.133 33.7357 209.375 33.633C209.624 33.5303 209.811 33.38 209.936 33.182C210.068 32.9767 210.134 32.731 210.134 32.445C210.134 32.0123 209.991 31.686 209.705 31.466C209.426 31.246 209.023 31.136 208.495 31.136H206.823V33.787H208.495Z" fill="white"/>
</svg>
