<svg width="20" height="21" viewBox="0 0 20 21" fill="none" xmlns="http://www.w3.org/2000/svg">
<path fill-rule="evenodd" clip-rule="evenodd" d="M5.03635 1.70644C6.3269 1.90491 7.635 1.47976 8.56236 0.56073C8.92981 0.197537 9.32438 0 9.73515 0C10.0667 0 10.3876 0.128631 10.6922 0.369025C10.7688 0.429557 10.8443 0.497184 10.9185 0.571586C11.8446 1.478 13.144 1.8943 14.4242 1.69426C14.9403 1.62789 15.3785 1.69962 15.7124 1.94222C16.0449 2.18387 16.248 2.57543 16.3316 3.08523C16.5417 4.37408 17.3504 5.48682 18.5111 6.08472C18.9701 6.32196 19.2799 6.63629 19.4069 7.02693C19.5337 7.41771 19.4679 7.85404 19.2359 8.31578C18.6484 9.48183 18.6485 10.8572 19.2361 12.0234C19.4679 12.4851 19.5337 12.9214 19.4069 13.3122C19.2799 13.7027 18.9701 14.017 18.5111 14.2544C17.3504 14.8523 16.5419 15.9651 16.3319 17.2539C16.2481 17.7637 16.0449 18.1555 15.7126 18.3969C15.3804 18.6383 14.945 18.7106 14.4341 18.6326C13.1436 18.4341 11.8355 18.8593 10.9081 19.7783C10.5407 20.1415 10.1461 20.3391 9.73533 20.3391C9.32455 20.3391 8.92997 20.1415 8.56253 19.7782C7.63518 18.8592 6.32708 18.4342 5.03653 18.6326C4.52564 18.7107 4.09041 18.6383 3.75809 18.397C3.42563 18.1553 3.22246 17.7638 3.13888 17.254C2.92876 15.9651 2.12009 14.8524 0.959401 14.2545C0.500364 14.0172 0.1906 13.7029 0.0635633 13.3123C-0.0631751 12.9215 0.00255908 12.4852 0.234599 12.0234C0.822126 10.8574 0.821964 9.48199 0.234442 8.31582C0.00255884 7.85412 -0.0631751 7.41776 0.0635633 7.02697C0.190617 6.6365 0.500364 6.32217 0.9594 6.08476C2.12009 5.48687 2.9286 4.37408 3.13856 3.08527C3.22242 2.57547 3.42562 2.18374 3.75793 1.94226C4.09007 1.70092 4.52546 1.62841 5.03635 1.70644ZM8.71998 10.7229C8.68625 10.7567 8.63186 10.7567 8.59813 10.7229C8.28633 10.4111 6.8709 8.9957 6.55912 8.68408C6.52539 8.65034 6.471 8.65034 6.43727 8.68408L5.01714 10.1042C4.98341 10.1379 4.98341 10.1923 5.01714 10.2261L8.59815 13.8071C8.63189 13.8408 8.68627 13.8408 8.72 13.8071C9.302 13.2251 13.8717 8.65577 14.4536 8.07345C14.4874 8.03971 14.4874 7.98533 14.4536 7.9516C14.2066 7.70458 13.2805 6.77848 13.0335 6.53147C12.9998 6.49774 12.9454 6.49774 12.9116 6.53147C12.4271 7.01573 9.20452 10.2388 8.71998 10.7229Z" fill="black"/>
</svg>
